PathFileType	4	(X/Y/Z)	C:/Users/beibeiliu/ov580/test_trc\sequence.29_training_dense_left.trc
DataRate	CameraRate	NumFrames	NumMarkers	Units	OrigDataRate	OrigDataStartFrame	OrigNumFrames
120	120	17	19	mm	120	347	396
Frame#	Time	ThumbCMC			ThumbMCP			ThumbIP			ThumbTip			IndexMCP			IndexPIP			IndexTip			MiddleMCP			MiddlePIP			MiddleTip			RingMCP			RingPIP			RingTip			PinkyMCP			PinkyPIP			PinkyTip			BackHand1			BackHand2			BackHand3	
		X0	Y0	Z0	X1	Y1	Z1	X2	Y2	Z2	X3	Y3	Z3	X4	Y4	Z4	X5	Y5	Z5	X6	Y6	Z6	X7	Y7	Z7	X8	Y8	Z8	X9	Y9	Z9	X10	Y10	Z10	X11	Y11	Z11	X12	Y12	Z12	X13	Y13	Z13	X14	Y14	Z14	X15	Y15	Z15	X16	Y16	Z16	X17	Y17	Z17	X18	Y18	Z18	
346	2.88333	-165.259	-86.4085	45.6217	-181.845	-100.439	22.0699	-190.424	-95.6762	-1.30991	-201.3	-83.8148	-21.9238	-165.462	-101.602	-20.3414	-170.019	-112.906	-40.5655	-173.237	-123.194	-59.0101	-163.19	-78.3638	-32.5638	-164.196	-80.8549	-50.8471	-160.534	-81.9756	-79.2903	-168.748	-54.3043	-27.3894	-169.569	-54.8882	-47.7895	-166.6	-59.656	-69.6773	-177.039	-35.133	-20.8427	-181.609	-30.2226	-37.4509	-178.823	-24.7926	-53.3238	-155.486	-47.3041	9.39167	-147.968	-37.5877	29.1983	-145.006	-68.6643	25.7363	
347	2.89167	-163.494	-85.6461	44.2327	-180.872	-102.355	20.9589	-190.222	-97.8249	-2.01865	-196.908	-81.9747	-17.7926	-161.932	-98.3686	-19.0474	-166.811	-109.013	-38.2393	-171.011	-122.994	-54.9438	-159.873	-78.5112	-30.8869	-161.366	-78.6269	-55.6024	-158.033	-83.992	-78.5828	-165.956	-53.5012	-30.7995	-166.989	-54.3465	-47.0865	-163.707	-59.3611	-69.9166	-174.632	-33.8839	-20.0203	-178.21	-32.8529	-38.0349	-176.516	-27.626	-55.3405	-151.986	-49.7115	9.01819	-144.417	-42.6712	32.6283	-144.762	-72.4068	25.4152	
348	2.9	-161.658	-84.1434	47.1891	-179.101	-104.837	24.32	-187.039	-98.2799	2.8792	-195.006	-82.9312	-13.3788	-158.936	-101.605	-17.9431	-164.171	-110.869	-38.7416	-168.021	-123.48	-57.824	-157.547	-79.7538	-32.6439	-158.292	-82.1889	-55.1335	-154.461	-81.6917	-77.9466	-163.431	-53.0253	-27.4031	-162.962	-58.09	-47.0354	-160.59	-56.3167	-70.8664	-172.16	-33.8961	-17.8317	-176.018	-31.7341	-34.0634	-175.343	-25.9843	-54.6415	-148.529	-49.3045	12.5086	-142.125	-43.5889	34.8843	-140.634	-68.0386	27.5114	
349	2.90833	-160.307	-85.2395	47.929	-175.544	-100.817	25.2766	-185.38	-95.0336	-0.208156	-192.992	-74.9734	-16.2882	-156.671	-98.5768	-16.4579	-161.255	-111.374	-34.1446	-164.525	-125.006	-56.7459	-155.492	-73.9507	-29.8503	-156.053	-80.7393	-49.6189	-151.32	-86.2894	-77.0001	-159.915	-55.7586	-27.2739	-160.545	-57.8869	-48.4465	-158.107	-60.7627	-65.8474	-169.852	-33.9748	-21.8319	-173.466	-33.6759	-34.3152	-172.101	-28.7854	-50.9335	-146.174	-44.8819	12.308	-138.541	-41.2752	34.6251	-140.365	-67.5317	27.5753	
350	2.91667	-159.201	-85.7912	48.3082	-175.736	-103.014	25.1276	-184.876	-97.6779	3.3449	-192.916	-77.5479	-11.8137	-154.555	-102.636	-19.9082	-158.679	-109.593	-36.9976	-161.959	-123.61	-58.174	-154.191	-75.9752	-32.9192	-154.525	-79.7465	-53.3939	-149.252	-83.0897	-77.6011	-159.316	-58.2067	-24.1883	-158.946	-58.5439	-49.9931	-155.241	-60.575	-68.3196	-168.419	-33.2556	-16.441	-173.927	-31.3678	-36.3348	-171.595	-24.5244	-53.6121	-148.384	-48.3435	9.91145	-138.038	-44.115	34.2722	-137.124	-65.888	30.1568	
351	2.925	-156.89	-86.8842	46.1327	-175.804	-103.959	23.1389	-186.153	-96.4128	-0.476369	-192.149	-76.0944	-12.2216	-153.014	-102.775	-18.5299	-156.266	-109.772	-35.1127	-158.597	-123.557	-59.3411	-153.841	-73.4121	-31.6146	-151.753	-82.1511	-50.4454	-148.871	-78.5384	-74.6556	-159.595	-53.114	-30.2267	-159.166	-54.6933	-50.3575	-157.102	-53.8447	-66.5551	-169.554	-35.4344	-18.1158	-173.824	-33.1724	-33.9531	-174.408	-23.2078	-50.5851	-146.75	-47.4888	13.923	-141.326	-39.0359	32.0687	-136.492	-67.8072	28.2054	
352	2.93333	-155.691	-83.3472	43.4885	-172.501	-101.993	23.022	-183.163	-92.4018	-3.80756	-192.068	-74.0623	-11.0593	-149.146	-98.2728	-19.8469	-150.403	-110.508	-41.0723	-152.152	-114.783	-61.7111	-152.044	-72.2234	-30.4194	-151.549	-75.5161	-51.4564	-144.982	-79.5506	-78.9826	-161.052	-50.4611	-32.1533	-160.056	-54.4355	-48.4826	-156.699	-54.5967	-69.2748	-172.993	-29.9482	-22.4945	-177.35	-30.5539	-36.6875	-176.231	-22.2797	-51.3624	-147.887	-42.3799	7.59641	-143.781	-33.1126	33.5647	-136.619	-60.0274	26.7394	
353	2.94167	-152.085	-78.7178	38.5215	-166.359	-98.3091	19.824	-177.892	-90.5709	-4.94562	-190.224	-73.9284	-12.5482	-145.28	-87.6094	-27.1344	-144.989	-97.7268	-46.2943	-142.266	-107.342	-63.0467	-149.277	-67.8091	-37.0731	-148.855	-71.6365	-57.7199	-144.292	-68.472	-80.048	-162.988	-45.9618	-29.6173	-160.167	-49.3953	-51.3466	-158.283	-49.3038	-67.8667	-177.725	-27.3384	-22.1753	-180.545	-29.3124	-38.352	-182.265	-19.5195	-50.3517	-152.08	-39.0212	7.46327	-145.829	-31.5919	32.8544	-135.902	-56.3337	22.4838	
354	2.95	-144.673	-74.4393	38.9197	-155.339	-94.0519	12.7083	-168.527	-87.1697	-9.1782	-185.112	-67.775	-15.5923	-136.485	-76.5044	-27.5141	-135.404	-83.6436	-48.4428	-130.711	-90.9945	-65.1359	-149.118	-53.9301	-35.2235	-145.334	-58.8373	-59.3834	-142.682	-56.1381	-80.7977	-162.752	-40.9915	-31.52	-161.14	-42.3532	-52.6451	-160.801	-39.0033	-72.06	-179.802	-28.8141	-20.3747	-186.604	-23.6399	-39.0064	-185.245	-19.518	-52.7565	-153	-30.0103	8.97535	-150.685	-19.5474	33.686	-137.711	-44.5259	24.5477	
355	2.95833	-138.513	-63.0709	36.7832	-142.93	-84.5644	9.56006	-157.897	-78.6719	-14.4562	-177.471	-68.7232	-21.4545	-131.067	-60.9356	-31.0707	-126.798	-66.4298	-52.8054	-119.408	-72.3721	-67.1898	-147.53	-42.5888	-41.2989	-142.991	-45.8989	-59.7433	-142.155	-41.2188	-81.6784	-165.91	-32.855	-31.9229	-163.819	-33.944	-54.7759	-162.736	-32.8969	-71.7748	-186.983	-24.3714	-24.4602	-190.408	-25.6032	-40.9074	-196.037	-16.1281	-53.422	-161.688	-20.144	7.73629	-155.42	-14.9504	30.8573	-135.618	-33.7701	19.2282	
356	2.96667	-132.04	-49.1436	33.506	-133.056	-67.5632	6.29606	-146.597	-68.08	-12.7647	-171.74	-61.1625	-26.5826	-125.432	-44.762	-33.7533	-120.902	-48.0451	-50.2244	-114.928	-49.5061	-73.9515	-147.131	-30.436	-40.1966	-145.329	-31.6064	-62.7258	-142.837	-25.8767	-86.8999	-164.985	-27.2144	-34.9756	-166.402	-26.6496	-57.0493	-169.737	-23.3074	-76.3856	-187.68	-24.1973	-26.1206	-194.261	-25.041	-42.097	-201.125	-19.5625	-56.45	-166.198	-15.0172	6.09311	-161.86	-8.6424	32.9438	-136.944	-19.6154	18.8424	
357	2.975	-129.453	-36.0897	32.034	-123.516	-53.6981	4.44263	-139.044	-54.1726	-21.1558	-161.164	-52.9724	-28.0389	-126.389	-26.8338	-34.6258	-118.681	-29.4956	-53.1437	-114.076	-29.0973	-72.9581	-146.971	-20.6963	-40.9273	-147.675	-19.8055	-62.7328	-145.653	-13.0292	-89.7754	-168.945	-20.3041	-36.9936	-172.888	-20.0926	-57.0964	-171.272	-17.976	-77.7566	-190.769	-24.071	-27.0289	-197.242	-26.148	-39.2992	-209.118	-24.4398	-58.065	-169.872	-7.84053	7.40653	-170.158	-2.01888	30.5276	-144.559	-7.45831	19.1085	
358	2.98333	-126.686	-21.5236	30.342	-119.763	-38.0421	1.7071	-133.051	-41.3914	-20.7336	-156.098	-44.7649	-31.8157	-126.04	-10.3624	-34.2226	-122.972	-11.3174	-54.57	-113.507	-9.81189	-77.1061	-152.511	-8.39733	-47.1491	-151.195	-8.05512	-67.3907	-153.751	-3.65205	-89.4075	-176.347	-14.9657	-41.677	-178.668	-16.5105	-57.4604	-180.912	-14.304	-79.8295	-196.138	-23.5496	-27.3757	-202.784	-28.7291	-42.3276	-205.777	-27.1776	-57.9305	-172.292	-2.32173	1.95532	-176.887	3.50269	27.796	-146.081	1.82346	18.0059	
359	2.99167	-129.634	-6.14598	24.257	-117.71	-20.2692	0.389109	-126.735	-29.1061	-23.4281	-148.407	-38.6327	-35.7889	-128.249	4.72244	-37.6783	-122.393	4.94136	-58.2857	-118.718	8.36101	-77.966	-154.757	0.370204	-45.7533	-155.694	-1.35188	-65.2503	-161.688	2.80729	-94.0793	-177.071	-11.8914	-38.5447	-180.413	-14.3579	-62.2325	-182.888	-14.3141	-80.2825	-189.83	-23.1836	-25.8261	-196.647	-30.9129	-41.0361	-205.577	-35.7118	-60.7021	-179.889	1.21801	1.71417	-183.593	4.34078	29.4343	-151.377	11.8767	12.7095	
360	3	-131.456	7.44211	23.6762	-119.987	-4.82058	1.09951	-130.918	-16.187	-23.6088	-144.223	-29.9613	-36.3698	-139.305	15.5452	-41.0781	-130.531	18.6978	-62.2019	-127.63	20.3895	-82.2804	-158.972	6.17508	-48.8094	-161.951	4.18679	-70.9065	-162.451	6.51577	-96.9304	-178.738	-11.0715	-39.317	-179.586	-14.866	-61.4368	-180.459	-16.7379	-84.1159	-187.564	-25.922	-31.9423	-191.415	-35.2472	-42.2346	-193.281	-41.3172	-60.3661	-182.63	1.52602	-2.15927	-187.239	4.184	23.2856	-162.328	18.7959	12.7657	
361	3.00833	-141.493	18.6924	21.778	-123.415	9.5513	-4.68472	-128.82	-4.31406	-26.379	-139.783	-23.1135	-36.3232	-147.099	24.1651	-44.4555	-141.526	27.1152	-61.8092	-136.341	32.1425	-84.0628	-163.763	9.88669	-47.2004	-162.969	8.02563	-69.6276	-165.802	6.48072	-94.8632	-175.732	-11.2607	-40.9771	-175.866	-16.5991	-65.5197	-175.714	-18.4006	-83.9487	-183.496	-29.6439	-29.1293	-180.674	-40.33	-45.2763	-183.519	-48.8785	-63.5293	-182.815	3.4761	1.83061	-187.845	7.24304	26.475	-171.827	21.5711	10.9523	
362	3.01667	-148.497	29.7283	21.1937	-126.364	24.1674	-8.39723	-126.641	7.78116	-26.8516	-138.425	-17.1088	-35.0165	-154.673	32.2055	-44.2871	-149.981	33.6365	-65.5667	-145.845	40.7915	-87.3373	-168.94	7.62288	-49.2078	-164.873	10.0293	-73.9779	-166.56	7.18828	-97.5624	-173.068	-9.16256	-42.8382	-168.513	-12.6753	-62.5442	-167.86	-18.1836	-87.1119	-174.019	-28.2766	-30.4903	-169.357	-41.3041	-45.0938	-167.553	-48.7316	-60.3379	-186.556	4.1166	0.236349	-191.77	5.04255	20.5045	-180.126	24.5091	7.67477	
